<?xml version="1.0" encoding="UTF-8" standalone="no" ?>
<!DOCTYPE svg PUBLIC "-//W3C//DTD SVG 1.1//EN" "http://www.w3.org/Graphics/SVG/1.1/DTD/svg11.dtd">
<svg xmlns="http://www.w3.org/2000/svg" xmlns:xlink="http://www.w3.org/1999/xlink" version="1.1" width="137.99" height="137.99" xml:space="preserve">
<desc>Created with Fabric.js 1.6.0-rc.1</desc>
<defs></defs>
<g style="stroke: none; stroke-width: 1; stroke-dasharray: none; stroke-linecap: butt; stroke-linejoin: miter; stroke-miterlimit: 10; fill: none; fill-rule: nonzero; opacity: 1;" transform="translate(10 10) scale(0.23 0.23)" >
  <circle cx="256" cy="256" r="256" style="stroke: none; stroke-width: 1; stroke-dasharray: none; stroke-linecap: butt; stroke-linejoin: miter; stroke-miterlimit: 10; fill: #FF5722; fill-rule: nonzero; opacity: 1;" transform="  matrix(1 0 0 1 0 0) "/>
  <path d="M 322.001 241.901 l -47.383 -78.992 v -37.236 h 9.309 c 5.139 0 9.309 -4.17 9.309 -9.309 s -4.17 -9.309 -9.309 -9.309 h -55.855 c -5.139 0 -9.309 4.17 -9.309 9.309 s 4.17 9.309 9.309 9.309 h 9.309 v 37.236 l -47.383 78.992 c -1.722 2.881 -1.769 6.47 -0.14 9.402 c 1.676 2.886 4.748 4.701 8.099 4.701 h 116.084 c 3.351 0 6.423 -1.815 8.099 -4.701 C 323.77 248.367 323.724 244.783 322.001 241.901 z" style="stroke: none; stroke-width: 1; stroke-dasharray: none; stroke-linecap: butt; stroke-linejoin: miter; stroke-miterlimit: 10; fill: #FFE4DE; fill-rule: nonzero; opacity: 1;" transform=" matrix(1 0 0 1 0 0) " stroke-linecap="round" />
  <polygon points="334.13,283.93 310.86,283.93 358.4,404.94 381.67,404.94 " style="stroke: none; stroke-width: 1; stroke-dasharray: none; stroke-linecap: butt; stroke-linejoin: miter; stroke-miterlimit: 10; fill: #DE5735; fill-rule: nonzero; opacity: 1;" transform="  matrix(1 0 0 1 0 0) "/>
  <polygon points="177.87,283.93 130.33,404.94 153.6,404.94 201.14,283.93 " style="stroke: none; stroke-width: 1; stroke-dasharray: none; stroke-linecap: butt; stroke-linejoin: miter; stroke-miterlimit: 10; fill: #DE5735; fill-rule: nonzero; opacity: 1;" transform="  matrix(1 0 0 1 0 0) "/>
  <path d="M 144.291 279.273 c 0 2.574 2.085 4.655 4.655 4.655 h 214.109 c 2.569 0 4.655 -2.081 4.655 -4.655 v -18.618 c 0 -2.569 -2.085 -4.655 -4.655 -4.655 H 148.945 c -2.569 0 -4.655 2.085 -4.655 4.655 V 279.273 z" style="stroke: none; stroke-width: 1; stroke-dasharray: none; stroke-linecap: butt; stroke-linejoin: miter; stroke-miterlimit: 10; fill: #2C0900; fill-rule: nonzero; opacity: 1;" transform=" matrix(1 0 0 1 0 0) " stroke-linecap="round" />
  <path d="M 302.545 395.636 c 0 5.139 -4.17 9.309 -9.309 9.309 h -74.473 c -5.139 0 -9.309 -4.17 -9.309 -9.309 l 0 0 c 0 -5.139 4.17 -9.309 9.309 -9.309 h 74.473 C 298.375 386.327 302.545 390.498 302.545 395.636 L 302.545 395.636 z" style="stroke: none; stroke-width: 1; stroke-dasharray: none; stroke-linecap: butt; stroke-linejoin: miter; stroke-miterlimit: 10; fill: #FFE4DE; fill-rule: nonzero; opacity: 1;" transform=" matrix(1 0 0 1 0 0) " stroke-linecap="round" />
  <path d="M 306.665 241.636 c -1.271 2.183 -3.598 3.561 -6.139 3.561 h -87.966 c -2.537 0 -4.869 -1.378 -6.139 -3.561 c -1.233 -2.23 -1.196 -4.943 0.107 -7.126 l 18.977 -31.637 h 62.078 l 18.977 31.637 C 307.866 236.698 307.898 239.411 306.665 241.636 z" style="stroke: none; stroke-width: 1; stroke-dasharray: none; stroke-linecap: butt; stroke-linejoin: miter; stroke-miterlimit: 10; fill: #D22600; fill-rule: nonzero; opacity: 1;" transform=" matrix(1 0 0 1 0 0) " stroke-linecap="round" />
  <path d="M 255.86 386.327 c -15.514 0 -31.032 -10.347 -31.032 -31.027 c 0 -20.689 31.032 -36.203 25.861 -62.064 C 304.947 329.407 298.664 386.327 255.86 386.327 z" style="stroke: none; stroke-width: 1; stroke-dasharray: none; stroke-linecap: butt; stroke-linejoin: miter; stroke-miterlimit: 10; fill: #AC2200; fill-rule: nonzero; opacity: 1;" transform=" matrix(1 0 0 1 0 0) " stroke-linecap="round" />
  <path d="M 256.633 386.327 c -6.893 0 -13.791 -4.599 -13.791 -13.791 c 0 -9.197 13.791 -16.081 11.492 -27.583 C 278.449 361.025 275.656 386.327 256.633 386.327 z" style="stroke: none; stroke-width: 1; stroke-dasharray: none; stroke-linecap: butt; stroke-linejoin: miter; stroke-miterlimit: 10; fill: #FF2F00; fill-rule: nonzero; opacity: 1;" transform=" matrix(1 0 0 1 0 0) " stroke-linecap="round" />
  <path d="M 256 107.055 h -27.927 c -5.139 0 -9.309 4.17 -9.309 9.309 s 4.17 9.309 9.309 9.309 h 9.309 v 37.236 l -47.383 78.992 c -1.722 2.881 -1.769 6.47 -0.14 9.402 c 1.676 2.886 4.748 4.701 8.099 4.701 H 256 V 107.055 z" style="stroke: none; stroke-width: 1; stroke-dasharray: none; stroke-linecap: butt; stroke-linejoin: miter; stroke-miterlimit: 10; fill: #FFFFFF; fill-rule: nonzero; opacity: 1;" transform=" matrix(1 0 0 1 0 0) " stroke-linecap="round" />
  <path d="M 256.545 202.873 h -31.037 l -18.977 31.637 c -1.303 2.188 -1.34 4.901 -0.107 7.126 c 1.271 2.183 3.598 3.561 6.139 3.561 h 43.981 V 202.873 L 256.545 202.873 z" style="stroke: none; stroke-width: 1; stroke-dasharray: none; stroke-linecap: butt; stroke-linejoin: miter; stroke-miterlimit: 10; fill: #FF2F00; fill-rule: nonzero; opacity: 1;" transform=" matrix(1 0 0 1 0 0) " stroke-linecap="round" />
  <path d="M 256 256 H 148.945 c -2.569 0 -4.655 2.085 -4.655 4.655 v 18.618 c 0 2.574 2.085 4.655 4.655 4.655 H 256 V 256 z" style="stroke: none; stroke-width: 1; stroke-dasharray: none; stroke-linecap: butt; stroke-linejoin: miter; stroke-miterlimit: 10; fill: #7A1C05; fill-rule: nonzero; opacity: 1;" transform=" matrix(1 0 0 1 0 0) " stroke-linecap="round" />
</g>
</svg>